<?xml version="1.0"?><svg version="1.1" viewBox="0 0 512 512" xmlns="http://www.w3.org/2000/svg"><g fill="#2D527C"><path d="m122.47 239.01h-63.858c-8.291 0-15.011-6.721-15.011-15.011v-130.82c0-25.596 20.824-46.418 46.418-46.418h331.96c25.596 0 46.418 20.824 46.418 46.418 0 8.291-6.721 15.011-15.011 15.011-8.291 0-15.011-6.721-15.011-15.011 0-9.04-7.356-16.395-16.395-16.395h-331.97c-9.04 0-16.395 7.356-16.395 16.395v115.81h48.849c8.291 0 15.011 6.721 15.011 15.011s-6.722 15.012-15.013 15.012z"/><path d="m421.98 465.23h-331.97c-25.596 0-46.418-20.824-46.418-46.418 0-8.291 6.721-15.011 15.011-15.011s15.011 6.721 15.011 15.011c0 9.04 7.356 16.395 16.395 16.395h331.96c9.04 0 16.395-7.356 16.395-16.395v-116.58c0-8.291 6.721-15.011 15.011-15.011 8.291 0 15.011 6.721 15.011 15.011v116.58c3e-3 25.596-20.819 46.418-46.415 46.418z"/></g><polygon points="413.04 132.74 496.99 189.43 413.04 246.12" fill="#CEE8FA"/><path d="m413.04 261.13c-2.414 0-4.834-0.581-7.043-1.755-4.903-2.604-7.968-7.704-7.968-13.257v-113.38c0-5.553 3.065-10.651 7.968-13.257 4.904-2.606 10.846-2.292 15.445 0.815l83.945 56.689c4.133 2.791 6.609 7.453 6.609 12.44s-2.477 9.649-6.61 12.44l-83.945 56.689c-2.527 1.711-5.459 2.576-8.401 2.576zm15.013-100.14v56.877l42.112-28.438-42.112-28.439z" fill="#2D527C"/><path d="m413.28 164.39h-188.83c-16.098 0-29.148 13.049-29.148 29.148v101.67h-180.29v52.403h203.54c16.098 0 29.148-13.049 29.148-29.148v-101.67h165.58v-52.401z" fill="#CEE8FA"/><path d="m218.56 362.62h-203.54c-8.29 0-15.011-6.72-15.011-15.011v-52.403c0-8.291 6.721-15.011 15.011-15.011h165.28v-86.661c0-24.35 19.809-44.159 44.159-44.159h188.83c8.291 0 15.011 6.721 15.011 15.011v52.402c0 8.291-6.721 15.011-15.011 15.011h-150.56v86.661c0 24.351-19.811 44.16-44.159 44.16zm-188.53-30.023h188.53c7.794 0 14.136-6.342 14.136-14.136v-101.67c0-8.291 6.721-15.011 15.011-15.011h150.57v-22.379h-173.82c-7.794 0-14.136 6.342-14.136 14.136v101.67c0 8.291-6.721 15.011-15.011 15.011h-165.28v22.379z" fill="#2D527C"/></svg>